<svg xmlns="http://www.w3.org/2000/svg" width="24" height="24" viewBox="0 0 24 24">
  <path d="M12 .858c-6.617 0-12 4.434-12 9.883 0 2.573 1.177 4.985 3.325 6.831l-2.41 4.811a.499.499 0 0 0 .658.676l6.437-2.995c1.278.371 2.62.559 3.99.559 6.617 0 12-4.433 12-9.882S18.617.858 12 .858zm0 18.765c-1.338 0-2.645-.191-3.883-.57a.5.5 0 0 0-.357.025l-5.308 2.47 1.945-3.883a.5.5 0 0 0-.135-.614C2.159 15.368 1 13.127 1 10.741c0-4.898 4.935-8.883 11-8.883s11 3.984 11 8.883c0 4.898-4.935 8.882-11 8.882z"/>
  <path d="M14.516 13.982h-1.5v-5.5a.5.5 0 0 0-.5-.5h-2a.5.5 0 0 0 0 1h1.5v5h-1.5a.5.5 0 0 0 0 1h4a.5.5 0 0 0 0-1zM12 6.482a1.001 1.001 0 1 0-1-1c0 .552.449 1 1 1zm.5-1H12v-.001l.5.001z"/>
</svg>
