<svg xmlns="http://www.w3.org/2000/svg" viewBox="0 0 25 25">
  <path fill="#bde1ff" d="M12.5 5a3.46 3.46 0 0 0-1.5.35 3.48 3.48 0 0 1 0 6.3 3.46 3.46 0 0 0 1.5.35 3.5 3.5 0 0 0 0-7z"/>
  <path fill="#bde1ff" d="M12.5 15a7.475 7.475 0 0 0-1.5.156 7.514 7.514 0 0 1 5.893 6.14A11.457 11.457 0 0 1 11 23.89a11.275 11.275 0 0 0 8.893-2.594A7.505 7.505 0 0 0 12.5 15z"/>
  <path fill="#2195f2" d="M12.5 4A4.5 4.5 0 1 0 17 8.5 4.5 4.5 0 0 0 12.5 4zm0 8A3.5 3.5 0 1 1 16 8.5a3.504 3.504 0 0 1-3.5 3.5z"/>
  <path fill="#2195f2" d="M12.5 0A12.49 12.49 0 0 0 5 22.483a12.432 12.432 0 0 0 15 0q.5-.376.958-.798A12.487 12.487 0 0 0 12.5 0zm0 24a11.443 11.443 0 0 1-7.393-2.704 7.49 7.49 0 0 1 14.786 0A11.443 11.443 0 0 1 12.5 24zm8.25-3.506a8.487 8.487 0 0 0-16.5 0 11.5 11.5 0 1 1 16.5 0z"/>
</svg>
