<svg height="48" viewBox="0 0 48 48" width="48" xmlns="http://www.w3.org/2000/svg">
  <path fill="#ea3546" d="M24 35.232c-.17 0-.342-.044-.496-.132C22.994 34.81 11 27.855 11 19.197c0-4.936 3.54-7.52 7.038-7.52 2.215 0 4.606 1.056 5.962 3.35 1.38-2.337 3.835-3.412 6.11-3.412 3.423 0 6.89 2.403 6.89 6.997 0 8.036-11.936 16.11-12.444 16.45-.168.114-.362.17-.556.17zM18.038 13.68C15.61 13.68 13 15.406 13 19.197c0 6.553 8.69 12.42 10.96 13.842C26.21 31.426 35 24.723 35 18.612c0-3.433-2.535-4.997-4.89-4.997-2.04 0-4.604 1.196-5.122 4.566-.075.488-.495.85-.988.85s-.913-.36-.988-.85c-.51-3.322-3-4.5-4.974-4.5z"/>
  <path d="M2.725 46.732c-.265 0-.524-.104-.717-.303-.297-.307-.368-.766-.178-1.147l4.82-9.62C2.354 31.97 0 27.146 0 22 0 11.102 10.767 2.234 24 2.234S48 11.102 48 22 37.233 41.765 24 41.765c-2.74 0-5.422-.376-7.98-1.117l-12.874 5.99c-.134.064-.28.094-.42.094zM24 4.234C11.87 4.234 2 12.204 2 22c0 4.77 2.317 9.253 6.525 12.62.368.294.48.807.27 1.228l-3.892 7.767 10.618-4.94c.225-.105.48-.122.715-.05 2.478.756 5.09 1.14 7.765 1.14 12.13 0 22-7.97 22-17.765S36.13 4.234 24 4.234z"/>
</svg>
