<svg width="87" height="87" viewBox="0 0 87 87" xmlns="http://www.w3.org/2000/svg">
  <g fill="none" fill-rule="evenodd">
    <path d="M48.657 86.897c-.267 0-.42-.02-.42-.02-.034-.006-.094-.015-.127-.022-3.917-.812-5.14-5.753-5.19-5.963-.008-.035-.015-.07-.02-.104L38.65 55.16c-.008-.047-.014-.096-.017-.144-.332-5.003-5.672-5.783-5.9-5.813l-.1-.016-24.17-4.863c-4.964-1.228-6.393-3.172-6.738-3.802-1.06-1.697-.95-3.098-.665-3.978.697-2.166 2.97-3.127 3.226-3.23L69.17 2.994c.636-.392 4.112-2.43 8.084-2.43 2.457 0 4.618.765 6.42 2.276.034.028.067.057.097.09l.665.662c.03.03.06.063.09.096 4.93 5.884.46 13.513-.158 14.505L54.014 83.155c-1.493 3.47-4.478 3.742-5.357 3.742zm-2.81-6.667c.1.354.945 3.202 2.782 3.667h.027c.66 0 1.882-.255 2.62-1.97l30.413-65.09c.03-.064.064-.125.102-.185.04-.062 4.14-6.53.472-10.988L81.7 5.1c-1.24-1.02-2.735-1.537-4.446-1.537-3.422 0-6.512 1.988-6.543 2.008-.058.04-.12.074-.183.104L5.477 36.068c-.385.16-1.34.696-1.562 1.403-.126.402 0 .905.377 1.495.04.06.074.124.103.19v-.002c.012 0 .922 1.302 4.728 2.244l24.054 4.838c2.772.373 8.01 2.613 8.446 8.505l4.225 25.49z" fill="#444445"/>
    <path d="M50.716 70.795c-.74 0-1.38-.545-1.485-1.297l-3.92-28.703c-.063-.465.095-.933.426-1.264l30.31-30.31c.587-.585 1.536-.585 2.122 0 .586.587.586 1.536 0 2.122L48.384 41.126l3.82 27.966c.112.82-.462 1.577-1.283 1.69-.068.008-.136.013-.204.013z" fill="#2195F2"/>
    <path d="M17.654 38.41c-.047 0-.094-.002-.142-.007l-2.16-.202c-.826-.076-1.432-.806-1.355-1.632.077-.825.813-1.45 1.633-1.353l2.162.202c.824.077 1.43.808 1.354 1.633-.073.777-.727 1.36-1.492 1.36z" fill="#2195F2"/>
    <path d="M40.77 40.573c-.046 0-.093-.002-.14-.007l-18.607-1.742c-.825-.077-1.43-.808-1.354-1.633.076-.824.814-1.445 1.633-1.352L40.91 37.58c.824.077 1.43.81 1.353 1.633-.073.777-.727 1.36-1.492 1.36z" fill="#2195F2"/>
  </g>
</svg>
