<svg width="87" height="96" viewBox="0 0 87 96" xmlns="http://www.w3.org/2000/svg">
  <g fill="none" fill-rule="evenodd">
    <path d="M74.78 88.63H2.385c-.828 0-1.5-.67-1.5-1.5V32.804c0-.828.672-1.5 1.5-1.5H74.78c.827 0 1.5.672 1.5 1.5V87.13c0 .83-.673 1.5-1.5 1.5zm-70.894-3H73.28V34.304H3.885V85.63z" fill="#444445"/>
    <path d="M85.268 95.11h-.2c-.83 0-1.5-.672-1.5-1.5s.67-1.5 1.5-1.5h.2c.828 0 1.5.672 1.5 1.5s-.672 1.5-1.5 1.5z" fill="#444445"/>
    <path d="M80.852 95.11h-1.496c-.828 0-1.5-.672-1.5-1.5s.672-1.5 1.5-1.5h1.496c.828 0 1.5.672 1.5 1.5s-.672 1.5-1.5 1.5z" fill="#444445"/>
    <path d="M74.082 95.11H6.04c-.83 0-1.5-.672-1.5-1.5s.67-1.5 1.5-1.5h68.042c.828 0 1.5.672 1.5 1.5s-.672 1.5-1.5 1.5z" fill="#444445"/>
    <path d="M74.78 28.19c-.83 0-1.5-.67-1.5-1.5V13.11H61.237c-.83 0-1.5-.672-1.5-1.5s.67-1.5 1.5-1.5h13.54c.83 0 1.5.672 1.5 1.5v15.08c0 .83-.67 1.5-1.5 1.5z" fill="#444445"/>
    <path d="M50.035 13.11H20.77c-.83 0-1.5-.672-1.5-1.5s.67-1.5 1.5-1.5h29.265c.828 0 1.5.672 1.5 1.5s-.672 1.5-1.5 1.5z" fill="#444445"/>
    <path d="M2.46 27.876c-.828 0-1.5-.672-1.5-1.5V11.61c0-.828.672-1.5 1.5-1.5h6.736c.83 0 1.5.672 1.5 1.5s-.67 1.5-1.5 1.5H3.96v13.266c0 .828-.67 1.5-1.5 1.5z" fill="#444445"/>
    <path d="M17.19 28.288c-3.614 0-6.556-2.94-6.556-6.558 0-.828.67-1.5 1.5-1.5s1.5.672 1.5 1.5c0 1.963 1.596 3.558 3.557 3.558 1.964 0 3.56-1.595 3.56-3.558 0-1.433-.853-2.72-2.173-3.28-.763-.32-1.12-1.202-.798-1.965.322-.762 1.204-1.118 1.965-.798 2.434 1.03 4.006 3.4 4.006 6.043 0 3.617-2.94 6.558-6.56 6.558z" fill="#444445"/>
    <path d="M16.866 22.345c-.43 0-.857-.184-1.154-.54-1.86-2.237-2.927-5.557-2.927-9.108 0-6.63 3.594-11.822 8.182-11.822 2.622 0 5.01 1.71 6.555 4.69.38.736.094 1.64-.64 2.022-.738.382-1.643.093-2.024-.642-1.01-1.95-2.428-3.07-3.89-3.07-2.81 0-5.183 4.04-5.183 8.822 0 2.82.834 5.507 2.234 7.19.528.635.44 1.58-.196 2.11-.28.234-.62.348-.958.348z" fill="#444445"/>
    <path d="M57.866 22.345c-.43 0-.857-.185-1.154-.54-1.86-2.24-2.927-5.557-2.927-9.108 0-6.63 3.594-11.822 8.183-11.822 2.62 0 5.01 1.71 6.554 4.69.38.736.094 1.64-.64 2.022-.737.382-1.643.093-2.024-.642-1.01-1.95-2.428-3.07-3.89-3.07-2.81 0-5.183 4.04-5.183 8.822 0 2.82.834 5.506 2.234 7.19.528.635.44 1.582-.196 2.11-.28.234-.62.348-.958.348z" fill="#444445"/>
    <path d="M58.748 28.288c-3.617 0-6.56-2.94-6.56-6.558 0-.828.672-1.5 1.5-1.5.83 0 1.5.672 1.5 1.5 0 1.963 1.597 3.558 3.56 3.558 1.962 0 3.56-1.595 3.56-3.558 0-1.433-.855-2.72-2.175-3.28-.764-.32-1.12-1.202-.798-1.965.322-.762 1.204-1.118 1.966-.798 2.434 1.03 4.007 3.4 4.007 6.043 0 3.617-2.943 6.558-6.56 6.558z" fill="#444445"/>
    <path d="M29.17 55.228c-.383 0-.767-.147-1.06-.44-.586-.586-.586-1.535 0-2.12l9.346-9.346h-16.64c-.827 0-1.5-.672-1.5-1.5s.673-1.5 1.5-1.5h20.26c.608 0 1.155.365 1.387.926.232.56.103 1.206-.325 1.635L30.23 54.788c-.292.293-.675.44-1.06.44z" fill="#97CC04"/>
    <path d="M29.735 79.21c-4.716 0-9.032-2.388-11.542-6.39-.44-.7-.228-1.626.474-2.066.702-.44 1.628-.23 2.068.474 1.958 3.12 5.323 4.983 9 4.983 5.853 0 10.615-4.762 10.615-10.615 0-5.854-4.762-10.616-10.615-10.616-.83 0-1.5-.673-1.5-1.5 0-.83.67-1.5 1.5-1.5 7.507 0 13.615 6.107 13.615 13.615S37.242 79.21 29.735 79.21z" fill="#97CC04"/>
    <path d="M56.504 78.813c-.828 0-1.5-.67-1.5-1.5v-33.99h-6.357c-.83 0-1.5-.673-1.5-1.5 0-.83.67-1.5 1.5-1.5h7.857c.83 0 1.5.67 1.5 1.5v35.49c0 .83-.67 1.5-1.5 1.5z" fill="#97CC04"/>
    <path d="M85.052 28.288h-5.79c-.83 0-1.5-.672-1.5-1.5s.67-1.5 1.5-1.5h4.29V13.11H76.13c-.828 0-1.5-.672-1.5-1.5s.672-1.5 1.5-1.5h8.922c.828 0 1.5.672 1.5 1.5v15.178c0 .828-.672 1.5-1.5 1.5z" fill="#444445"/>
    <path d="M85.052 88.63h-5.696c-.828 0-1.5-.67-1.5-1.5 0-.827.672-1.5 1.5-1.5h4.196V33.88c0-.828.672-1.5 1.5-1.5s1.5.672 1.5 1.5v53.25c0 .83-.672 1.5-1.5 1.5z" fill="#444445"/>
    <path d="M80.033 83.887c-.828 0-1.5-.672-1.5-1.5v-5.805c0-.828.672-1.5 1.5-1.5s1.5.672 1.5 1.5v5.805c0 .828-.672 1.5-1.5 1.5z" fill="#444445"/>
    <path d="M80.033 71.148c-.828 0-1.5-.67-1.5-1.5V67.21c0-.827.672-1.5 1.5-1.5s1.5.673 1.5 1.5v2.438c0 .83-.672 1.5-1.5 1.5z" fill="#444445"/>
    <path d="M80.033 63.426c-.828 0-1.5-.672-1.5-1.5V33.88c0-.828.672-1.5 1.5-1.5s1.5.672 1.5 1.5v28.046c0 .828-.672 1.5-1.5 1.5z" fill="#444445"/>
  </g>
</svg>
