<svg xmlns="http://www.w3.org/2000/svg" viewBox="0 0 25 25" xmlns:xlink="http://www.w3.org/1999/xlink">
  <defs>
    <path id="a" d="M0 0h2v2H0z"/>
  </defs>
  <g fill="#bde1ff">
    <path d="M22 3v5H1v1h21v11.375H.5V23H24V3h-2z"/>
    <path fill="#2195f2" d="M24 2h-5V.5c0-.276-.224-.5-.5-.5s-.5.224-.5.5V2H7V.5c0-.276-.224-.5-.5-.5S6 .224 6 .5V2H1c-.552 0-1 .448-1 1v20c0 .552.448 1 1 1h23c.552 0 1-.448 1-1V3c0-.552-.448-1-1-1zm0 21H1V8h23zM1 7V3h23v4z"/>
    <use fill="#2195f2" transform="translate(13 11)" xlink:href="#a"/>
    <use fill="#2195f2" transform="translate(18 11)" xlink:href="#a"/>
    <use fill="#2195f2" transform="translate(5 16)" xlink:href="#a"/>
    <use fill="#2195f2" transform="translate(10 16)" xlink:href="#a"/>
  </g>
</svg>
