<svg height="48" viewBox="0 0 48 48" width="48" xmlns="http://www.w3.org/2000/svg">
  <path d="M42 2c2.206 0 4 1.794 4 4v36c0 2.206-1.794 4-4 4H6c-2.206 0-4-1.794-4-4V6c0-2.206 1.794-4 4-4h36m0-2H6C2.7 0 0 2.7 0 6v36c0 3.3 2.7 6 6 6h36c3.3 0 6-2.7 6-6V6c0-3.3-2.7-6-6-6z"/>
  <path d="M24 8c8.822 0 16 7.178 16 16s-7.178 16-16 16S8 32.822 8 24 15.178 8 24 8m0-2C14.06 6 6 14.06 6 24s8.06 18 18 18 18-8.06 18-18S33.94 6 24 6z"/>
  <path d="M30 25h-7V14c0-.553.448-1 1-1s1 .447 1 1v9h5c.552 0 1 .447 1 1s-.448 1-1 1z"/>
</svg>
