<svg xmlns="http://www.w3.org/2000/svg" width="24" height="24" viewBox="0 0 24 24">
  <path d="M12 0C5.383 0 0 5.383 0 12s5.383 12 12 12 12-5.383 12-12S18.617 0 12 0zm0 23C5.935 23 1 18.066 1 12 1 5.935 5.935 1 12 1s11 4.935 11 11c0 6.066-4.935 11-11 11z"/>
  <path d="M13.716 13.011A1.98 1.98 0 0 0 14 12c0-1.103-.897-2-2-2V6.5a.5.5 0 0 0-1 0v3.778c-.595.347-1 .984-1 1.722 0 1.103.897 2 2 2a1.97 1.97 0 0 0 1.008-.283l4.638 4.636a.5.5 0 0 0 .707-.707l-4.637-4.635zM11 12c0-.551.449-1 1-1s1 .449 1 1a.996.996 0 0 1-.288.699l-.009.006-.005.007A.993.993 0 0 1 12 13c-.551 0-1-.449-1-1z"/>
</svg>
