<svg width="84" height="108" viewBox="0 0 84 108" xmlns="http://www.w3.org/2000/svg">
  <g fill="none" fill-rule="evenodd">
    <path d="M41.92 96.33C18.815 96.33.02 77.53.02 54.43c0-8.294 2.417-16.31 6.99-23.184 2.076-3.117 4.558-5.945 7.383-8.407 3.542-3.092 7.542-5.546 11.888-7.296 4.972-2.002 10.235-3.017 15.64-3.017 23.105 0 41.903 18.797 41.903 41.902 0 23.102-18.798 41.9-41.903 41.9zm0-80.803c-5.02 0-9.904.943-14.52 2.8-4.032 1.624-7.746 3.902-11.036 6.773-2.622 2.287-4.93 4.914-6.856 7.808-4.244 6.38-6.49 13.82-6.49 21.52 0 21.45 17.452 38.9 38.902 38.9s38.903-17.45 38.903-38.9-17.452-38.9-38.903-38.9z" fill="#444445"/>
    <path d="M41.92 90.424c-19.848 0-35.994-16.148-35.994-35.996 0-19.848 16.146-35.995 35.994-35.995 19.85 0 35.998 16.147 35.998 35.995S61.77 90.424 41.92 90.424zm0-68.99c-18.193 0-32.994 14.8-32.994 32.994s14.8 32.996 32.994 32.996c18.195 0 32.998-14.802 32.998-32.996 0-18.194-14.803-32.995-32.998-32.995z" fill="#444445"/>
    <path d="M41.92 38.78c-.828 0-1.5-.673-1.5-1.5V26.62c0-.828.672-1.5 1.5-1.5.83 0 1.5.672 1.5 1.5V37.28c0 .827-.67 1.5-1.5 1.5z" fill="#444445"/>
    <path d="M41.92 83.013c-.83 0-1.5-.672-1.5-1.5V70.856c0-.828.67-1.5 1.5-1.5.828 0 1.5.672 1.5 1.5v10.657c0 .828-.672 1.5-1.5 1.5z" fill="#444445"/>
    <path d="M69.162 55.93H58.504c-.828 0-1.5-.673-1.5-1.5 0-.83.672-1.5 1.5-1.5h10.658c.828 0 1.5.67 1.5 1.5 0 .827-.672 1.5-1.5 1.5z" fill="#444445"/>
    <path d="M24.928 55.93H14.27c-.828 0-1.5-.673-1.5-1.5 0-.83.672-1.5 1.5-1.5H24.93c.828 0 1.5.67 1.5 1.5 0 .827-.672 1.5-1.5 1.5z" fill="#444445"/>
    <path d="M57.13 40.792c-.385 0-.77-.146-1.062-.44-.586-.585-.586-1.534 0-2.12l4.487-4.487c.586-.586 1.535-.586 2.122 0 .585.586.585 1.535 0 2.12l-4.488 4.488c-.294.293-.677.44-1.06.44z" fill="#444445"/>
    <path d="M22.802 75.118c-.383 0-.767-.146-1.06-.44-.586-.585-.586-1.534 0-2.12l4.486-4.487c.586-.585 1.536-.585 2.12 0 .587.587.587 1.536 0 2.123l-4.485 4.486c-.294.292-.678.438-1.06.438z" fill="#444445"/>
    <path d="M61.217 75.23c-.384 0-.768-.147-1.06-.44l-4.488-4.487c-.587-.586-.587-1.535 0-2.12.585-.587 1.534-.587 2.12 0l4.487 4.486c.586.585.586 1.534 0 2.12-.293.293-.676.44-1.06.44z" fill="#444445"/>
    <path d="M26.89 40.903c-.383 0-.767-.146-1.06-.44l-4.487-4.486c-.586-.586-.586-1.536 0-2.122.586-.585 1.535-.585 2.12 0l4.488 4.488c.587.586.587 1.535 0 2.12-.292.294-.676.44-1.06.44z" fill="#444445"/>
    <path d="M41.897 60.42c-3.04 0-5.515-2.474-5.515-5.515 0-2.65 1.653-4.868 3.847-5.395l10.603-22.416c.17-.363.48-.642.86-.775.38-.132.794-.108 1.155.068l4.085 1.997c.742.362 1.05 1.256.692 2L46.922 52.577c.396.735.49 1.452.49 2.327 0 3.04-2.474 5.515-5.515 5.515zm10.998-30.67L42.592 51.532c-.248.525-.777.86-1.357.86-1.004 0-1.853 1.15-1.853 2.513 0 1.387 1.13 2.515 2.515 2.515 1.386 0 2.514-1.128 2.514-2.515 0-.73-.062-.876-.363-1.233-.38-.452-.46-1.085-.203-1.617l10.43-21.63-1.38-.675z" fill="#2195F2"/>
    <path d="M17.563 106.863c-3.745 0-6.792-3.048-6.792-6.794 0-3.384 2.437-6.173 5.69-6.698l2.873-5.177c.402-.722 1.315-.984 2.04-.583.724.403.984 1.316.583 2.04l-3.254 5.863c-.257.46-.736.754-1.263.77-2.058.068-3.67 1.73-3.67 3.784 0 2.09 1.703 3.793 3.793 3.793s3.792-1.702 3.792-3.794c0-.98-.376-1.91-1.057-2.623-.316-.327-.464-.78-.405-1.23.057-.45.316-.85.703-1.086l6.452-3.956c.706-.434 1.63-.212 2.062.494.434.706.212 1.63-.495 2.062l-5.075 3.114c.532.982.815 2.085.815 3.225 0 3.745-3.046 6.793-6.792 6.793z" fill="#444445"/>
    <path d="M67.57 107.68c-3.746 0-6.793-3.047-6.793-6.793 0-1.14.283-2.244.817-3.226l-5.076-3.113c-.708-.433-.928-1.357-.496-2.063.434-.707 1.357-.927 2.064-.494l6.45 3.958c.39.238.647.637.705 1.087.06.45-.09.903-.405 1.23-.682.712-1.058 1.642-1.058 2.622 0 2.092 1.7 3.793 3.792 3.793 2.092 0 3.794-1.7 3.794-3.793 0-2.056-1.612-3.718-3.67-3.785-.527-.017-1.006-.31-1.262-.77l-3.255-5.862c-.402-.725-.14-1.638.584-2.04.725-.403 1.638-.14 2.04.583l2.874 5.175c3.254.524 5.69 3.314 5.69 6.7 0 3.745-3.048 6.792-6.795 6.792z" fill="#444445"/>
    <path d="M42.483 15.527c-.83 0-1.5-.672-1.5-1.5v-4.12c0-.828.67-1.5 1.5-1.5s1.5.672 1.5 1.5v4.12c0 .828-.67 1.5-1.5 1.5z" fill="#444445"/>
    <path d="M45.64 7.566h-6.193c-.828 0-1.5-.67-1.5-1.5 0-.828.672-1.5 1.5-1.5h6.194c.83 0 1.5.672 1.5 1.5 0 .83-.67 1.5-1.5 1.5z" fill="#444445"/>
    <path d="M15.9 67.402c-.578 0-1.13-.337-1.375-.9-.33-.76.018-1.645.777-1.975l21.98-9.564c.762-.332 1.646.017 1.976.776.33.76-.018 1.643-.777 1.973L16.5 67.277c-.195.085-.398.125-.6.125z" fill="#2195F2"/>
    <path d="M16.614 19.054c-.426 0-.846-.18-1.14-.526-1.583-1.85-2.703-3.386-2.703-6.307C12.77 6.01 17.824.96 24.034.96c6.194 0 10.698 3.7 11.21 9.21.07.77-.453 1.468-1.213 1.612-.82.157-1.645.34-2.455.542-.804.202-1.62-.285-1.82-1.088-.203-.802.284-1.618 1.088-1.82.388-.1.78-.19 1.173-.28-.893-3.185-3.89-5.176-7.983-5.176-4.556 0-8.262 3.707-8.262 8.263 0 1.427.34 2.262 1.138 3.322 2.553-1.674 5.25-3.088 8.037-4.21.635-.254 1.274-.495 1.92-.722.782-.272 1.638.137 1.912.918.276.782-.135 1.638-.917 1.912-.604.213-1.204.44-1.796.676-2.998 1.207-5.888 2.778-8.59 4.667-.263.182-.563.27-.86.27z" fill="#444445"/>
    <path d="M68.613 19.455c-.298 0-.597-.09-.858-.27-1.024-.716-2.084-1.392-3.152-2.01-.717-.416-.96-1.334-.546-2.05.416-.718 1.333-.964 2.05-.547.744.43 1.484.888 2.212 1.365.796-1.06 1.136-1.894 1.136-3.32 0-4.557-3.707-8.264-8.263-8.264-4.09 0-7.09 1.99-7.982 5.176 2.422.544 4.794 1.282 7.072 2.198.674.273 1.34.56 1.996.86.753.346 1.083 1.237.738 1.99-.347.752-1.24 1.08-1.99.737-.614-.28-1.236-.55-1.866-.802-2.55-1.03-5.23-1.815-7.964-2.336-.758-.146-1.284-.843-1.212-1.613.512-5.51 5.018-9.21 11.21-9.21 6.21 0 11.262 5.052 11.262 11.262 0 2.92-1.12 4.456-2.7 6.308-.296.344-.717.525-1.143.525z" fill="#444445"/>
    <path d="M18.276 13.118c-.058 0-.118-.003-.177-.01-.824-.097-1.412-.842-1.315-1.665.51-4.32 3.578-5.697 3.708-5.753.76-.333 1.644.02 1.973.78.326.754-.014 1.627-.76 1.964-.104.05-1.646.85-1.94 3.36-.092.763-.74 1.324-1.49 1.324z" fill="#FFBE2F"/>
    <path d="M57.145 9.354c-.41 0-.818-.166-1.115-.496-.553-.615-.505-1.564.11-2.118 2.72-2.452 5.474-1.94 5.78-1.873.808.177 1.322.977 1.144 1.786-.174.804-.964 1.316-1.77 1.15-.097-.02-1.57-.252-3.146 1.166-.286.258-.645.384-1.003.384z" fill="#FFBE2F"/>
  </g>
</svg>
