<svg xmlns="http://www.w3.org/2000/svg" viewBox="0 0 25 25">
  <g fill="#bde1ff">
    <path d="M18.51 6.49c3.32 3.32 3.32 8.7 0 12.02-3.32 3.32-8.7 3.32-12.02 0-3.32-3.32-3.32-8.7 0-12.02 3.32-3.32 8.7-3.32 12.02 0"/>
    <path fill="#2195f2" d="M12.5 0C5.596 0 0 5.596 0 12.5S5.596 25 12.5 25 25 19.404 25 12.5 19.404 0 12.5 0zm0 24C6.15 24 1 18.85 1 12.5S6.15 1 12.5 1 24 6.15 24 12.5c-.007 6.348-5.152 11.493-11.5 11.5z"/>
    <path fill="#2195f2" d="M13 12.293V6.5c0-.276-.224-.5-.5-.5s-.5.224-.5.5v6.002c0 .13.05.253.142.346l.004.006 4 4c.196.194.513.193.707-.003.193-.194.193-.51 0-.703z"/>
  </g>
</svg>
