<svg height="48" viewBox="0 0 48 48" width="48" xmlns="http://www.w3.org/2000/svg">
  <path d="M43 44H5c-2.757 0-5-2.243-5-5V11c0-2.757 2.243-5 5-5h38c2.757 0 5 2.243 5 5v28c0 2.757-2.243 5-5 5zM5 8c-1.654 0-3 1.346-3 3v28c0 1.654 1.346 3 3 3h38c1.654 0 3-1.346 3-3V11c0-1.654-1.346-3-3-3H5z"/>
  <path d="M47 18H1c-.553 0-1-.448-1-1s.447-1 1-1h46c.553 0 1 .448 1 1s-.447 1-1 1z"/>
  <circle fill="#ea3546" cx="8" cy="12" r="2"/>
  <circle fill="#ffbe2f" cx="14" cy="12" r="2"/>
  <circle fill="#97cc04" cx="20" cy="12" r="2"/>
</svg>
