<svg width="67" height="88" viewBox="0 0 67 88" xmlns="http://www.w3.org/2000/svg">
  <g fill="none" fill-rule="evenodd">
    <path d="M33.165 87.98c-.236 0-.46-.054-.66-.153l-.9-.174c-8.834-1.85-16.394-6.53-21.884-13.545C3.477 66.133.31 55.776.31 43.328v-25.31c0-.662.433-1.245 1.066-1.436l31.127-9.414c.14-.043.287-.064.434-.064h.733c.147 0 .294.02.434.064l31.128 9.414c.633.19 1.066.774 1.066 1.436v25.31c0 12.448-3.167 22.805-9.41 30.78-5.492 7.014-13.052 11.696-21.865 13.54l-.92.18c-.2.098-.425.152-.66.152-.012 0-.066-.002-.14-.01-.072.008-.126.01-.137.01zM3.31 19.13v24.197c0 17.083 7.59 36.926 28.89 41.386l1.104.213 1.127-.218C55.71 80.253 63.3 60.41 63.3 43.328V19.13l-29.85-9.026h-.29L3.31 19.13z" fill="#444445"/>
    <path d="M33.39 80.122c-.828 0-1.5-.672-1.5-1.5v-61.66c0-.48.228-.927.612-1.21.385-.283.88-.365 1.337-.223l23.37 7.32c.792.25 1.232 1.09.985 1.88-.248.79-1.093 1.23-1.88.984l-21.424-6.71V78.62c0 .828-.67 1.5-1.5 1.5z" fill="#FFBE2F"/>
    <path d="M40.822 77.372c-.828 0-1.5-.672-1.5-1.5V27.186c0-.83.672-1.5 1.5-1.5.83 0 1.5.67 1.5 1.5v48.686c0 .828-.67 1.5-1.5 1.5z" fill="#FFBE2F"/>
    <path d="M48.27 73.627c-.83 0-1.5-.672-1.5-1.5v-42.85c0-.828.67-1.5 1.5-1.5s1.5.672 1.5 1.5v42.85c0 .828-.67 1.5-1.5 1.5z" fill="#FFBE2F"/>
    <path d="M55.718 61.897c-.83 0-1.5-.672-1.5-1.5v-1.72c0-.827.67-1.5 1.5-1.5.828 0 1.5.673 1.5 1.5v1.72c0 .828-.672 1.5-1.5 1.5z" fill="#FFBE2F"/>
    <path d="M55.718 55.508c-.83 0-1.5-.672-1.5-1.5v-1.303c0-.828.67-1.5 1.5-1.5.828 0 1.5.672 1.5 1.5v1.303c0 .828-.672 1.5-1.5 1.5z" fill="#FFBE2F"/>
    <path d="M55.718 49.456c-.83 0-1.5-.672-1.5-1.5v-15.54c0-.83.67-1.5 1.5-1.5.828 0 1.5.67 1.5 1.5v15.54c0 .828-.672 1.5-1.5 1.5z" fill="#FFBE2F"/>
    <path d="M62.348 12.948c-.153 0-.31-.023-.462-.072L33.303 3.638 4.608 12.876c-.785.25-1.633-.18-1.887-.968-.253-.79.18-1.634.97-1.887L32.843.635c.3-.096.622-.096.92 0L62.81 10.02c.787.255 1.22 1.1.964 1.89-.205.635-.794 1.038-1.426 1.038z" fill="#444445"/>
  </g>
</svg>
