<svg xmlns="http://www.w3.org/2000/svg" width="24" height="24" viewBox="0 0 24 24">
  <path d="M22.5 0h-21C.673 0 0 .673 0 1.5v20c0 .827.673 1.5 1.5 1.5h21c.827 0 1.5-.673 1.5-1.5v-20c0-.827-.673-1.5-1.5-1.5zm.5 21.5a.5.5 0 0 1-.5.5h-21a.5.5 0 0 1-.5-.5v-20a.5.5 0 0 1 .5-.5h21a.5.5 0 0 1 .5.5v20z"/>
  <path d="M20.521 5H14.45c-.233-1.14-1.243-2-2.45-2s-2.217.86-2.449 2h-6.03a.5.5 0 0 0 0 1h6.03C9.783 7.14 10.793 8 12 8s2.217-.86 2.449-2h6.071a.5.5 0 0 0 .001-1zM12 7c-.827 0-1.5-.673-1.5-1.5S11.173 4 12 4c.825 0 1.496.67 1.499 1.494l-.001.006.001.006A1.5 1.5 0 0 1 12 7zm8.521 4H10.449C10.217 9.86 9.207 9 8 9s-2.217.86-2.449 2h-2.03a.5.5 0 0 0 0 1h2.03c.232 1.14 1.242 2 2.449 2s2.217-.86 2.449-2H20.52a.5.5 0 0 0 .001-1zM8 13c-.827 0-1.5-.673-1.5-1.5S7.173 10 8 10a1.5 1.5 0 0 1 1.499 1.487c0 .004-.003.008-.003.013s.002.008.003.013A1.5 1.5 0 0 1 8 13zm12.521 4H12.45c-.232-1.14-1.242-2-2.449-2s-2.217.86-2.449 2h-4.03a.5.5 0 0 0 0 1h4.03c.232 1.14 1.242 2 2.449 2s2.217-.86 2.449-2h8.071a.5.5 0 0 0 0-1zM10 19c-.827 0-1.5-.673-1.5-1.5S9.173 16 10 16a1.5 1.5 0 0 1 1.499 1.487c0 .004-.003.008-.003.013s.002.008.003.013A1.5 1.5 0 0 1 10 19z"/>
</svg>
