<svg xmlns="http://www.w3.org/2000/svg" viewBox="0 0 25 25" xmlns:xlink="http://www.w3.org/1999/xlink">
  <defs>
    <path id="a" d="M0 0h1v1H0z"/>
  </defs>
  <g fill="#bde1ff">
    <path d="M24 7H9V4h14.5c.276 0 .5.224.5.5z"/>
    <path fill="#2195f2" d="M23.5 3h-22C.672 3 0 3.672 0 4.5v18c0 .828.672 1.5 1.5 1.5h22c.828 0 1.5-.672 1.5-1.5v-18c0-.828-.672-1.5-1.5-1.5zM1 4.5c0-.276.224-.5.5-.5H8v3H1zm23 18c0 .276-.224.5-.5.5h-22c-.276 0-.5-.224-.5-.5V8h23zM24 7H9V4h14.5c.276 0 .5.224.5.5z"/>
    <use fill="#2195f2" transform="translate(2 5)" xlink:href="#a"/>
    <use fill="#2195f2" transform="translate(4 5)" xlink:href="#a"/>
    <use fill="#2195f2" transform="translate(6 5)" xlink:href="#a"/>
  </g>
</svg>
