<svg width="75" height="74" viewBox="0 0 75 74" xmlns="http://www.w3.org/2000/svg">
  <g fill="#444445" fill-rule="evenodd">
    <path d="M37.43 73.692c-1.91 0-3.84-.148-5.74-.44l-1.168-.93-2.722-6.896c-2.102-.707-4.135-1.647-6.06-2.8l-7.35 2.25-1.42-.3c-3.214-2.78-5.912-6.056-8.02-9.738v-1.493L8.597 47c-.93-2.424-1.55-4.956-1.85-7.545L.74 35.342l-.65-1.327c.25-4.194 1.19-8.272 2.796-12.12l1.157-.907 6.837-1.045c1.44-2.433 3.196-4.65 5.23-6.61l-.478-6.568.646-1.346c3.55-2.44 7.453-4.23 11.6-5.32l1.4.348 4.754 4.39c2.755-.328 5.442-.293 8.165.098l4.51-4.168 1.45-.335c4.3 1.285 8.3 3.318 11.883 6.04l.59 1.304-.463 6.337c1.664 1.72 3.13 3.628 4.364 5.69l6.188.944 1.154.896c1.8 4.232 2.79 8.738 2.94 13.393l-.65 1.286-5.493 3.76c-.28 2.06-.765 4.08-1.444 6.027l3.4 5.918.033 1.438c-2.12 4.084-4.934 7.704-8.37 10.76l-1.435.315-6.818-2.087c-1.7 1.043-3.498 1.92-5.362 2.62l-2.75 6.965-1.1.92c-2.435.487-4.923.734-7.395.734zm-4.44-3.285c3.485.446 7.004.365 10.45-.24l2.693-6.827.9-.865c2.095-.73 4.105-1.712 5.974-2.918l1.252-.173 6.655 2.038c2.683-2.505 4.93-5.4 6.698-8.62l-3.335-5.8-.104-1.274c.802-2.137 1.34-4.38 1.6-6.67l.643-1.068 5.362-3.67c-.208-3.715-.998-7.318-2.354-10.735l-6.056-.924-1.078-.742c-1.288-2.268-2.878-4.342-4.724-6.166l-.443-1.176.452-6.195c-2.898-2.096-6.076-3.714-9.47-4.82L43.7 7.63l-1.264.38c-2.894-.484-5.76-.524-8.696-.107l-1.228-.384-4.656-4.303c-3.248.938-6.325 2.348-9.17 4.2l.47 6.412-.482 1.213c-2.21 2.03-4.076 4.387-5.546 7.008l-1.082.75-6.704 1.025c-1.184 3.05-1.922 6.246-2.197 9.528l5.87 4.018.645 1.1c.258 2.786.927 5.504 1.986 8.077l-.086 1.32-3.574 6.217c1.73 2.854 3.854 5.43 6.33 7.676l7.192-2.2 1.238.163c2.086 1.313 4.318 2.343 6.633 3.06l.95.883 2.66 6.74z"/>
    <path d="M37.45 53.72c-9.883 0-17.924-8.04-17.924-17.924 0-9.883 8.04-17.924 17.925-17.924 9.884 0 17.924 8.04 17.924 17.924S47.334 53.72 37.45 53.72zm0-32.848c-8.23 0-14.924 6.695-14.924 14.924 0 8.23 6.695 14.925 14.925 14.925s14.924-6.694 14.924-14.924S45.68 20.872 37.45 20.872z"/>
    <path d="M37.328 60.913C23.59 60.913 12.415 49.737 12.415 36S23.59 11.087 37.328 11.087 62.24 22.263 62.24 36c0 .828-.67 1.5-1.5 1.5-.828 0-1.5-.672-1.5-1.5 0-12.083-9.83-21.913-21.912-21.913-12.083 0-21.913 9.83-21.913 21.913s9.83 21.913 21.913 21.913c.83 0 1.5.67 1.5 1.5 0 .828-.67 1.5-1.5 1.5z"/>
    <path d="M44.342 59.162c-.076 0-.138-.003-.185-.008-.825-.072-1.435-.8-1.363-1.625.07-.8.767-1.378 1.55-1.37.11-.006 1.21-.107 3.5-1.47.715-.423 1.634-.19 2.057.52.425.713.19 1.634-.52 2.058-2.833 1.684-4.424 1.894-5.038 1.894z"/>
    <path d="M54.635 53.164c-.53 0-1.045-.283-1.317-.78-.396-.724-.134-1.63.584-2.03.17-.1 3.553-2.134 4.947-8.643.173-.81.967-1.324 1.78-1.152.81.173 1.326.97 1.153 1.78-1.71 7.978-6.238 10.536-6.43 10.64-.228.126-.475.186-.718.186z"/>
  </g>
</svg>
