<svg xmlns="http://www.w3.org/2000/svg" viewBox="0 0 25 25">
  <g fill="#bde1ff">
    <path d="M3 1h2v23H3z"/>
    <path fill="#2195f2" d="M24.854 12.146l-5-5c-.2-.19-.516-.186-.707.013-.188.193-.188.5 0 .694L23.292 12H7.5c-.276 0-.5.224-.5.5s.224.5.5.5h15.793l-4.147 4.147c-.19.198-.186.515.013.707.193.187.5.187.694 0l5-5c.195-.196.195-.512 0-.707z"/>
    <path fill="#2195f2" d="M15.5 19c-.276 0-.5.224-.5.5v4c0 .276-.224.5-.5.5h-11c-.276 0-.5-.224-.5-.5v-22c0-.276.224-.5.5-.5h11c.276 0 .5.224.5.5v4c0 .276.224.5.5.5s.5-.224.5-.5v-4c0-.828-.672-1.5-1.5-1.5h-11C2.672 0 2 .672 2 1.5v22c0 .828.672 1.5 1.5 1.5h11c.828 0 1.5-.672 1.5-1.5v-4c0-.276-.224-.5-.5-.5z"/>
  </g>
</svg>
