<svg width="88" height="63" viewBox="0 0 88 63" xmlns="http://www.w3.org/2000/svg">
  <g fill="none" fill-rule="evenodd">
    <path d="M62.893 62.668H2.21c-.83 0-1.5-.67-1.5-1.5V2.114c0-.83.67-1.5 1.5-1.5h60.683c.828 0 1.5.67 1.5 1.5v22.062c0 .83-.672 1.5-1.5 1.5-.83 0-1.5-.67-1.5-1.5V3.614H3.71v56.054h57.683v-18.32c0-.83.67-1.5 1.5-1.5.828 0 1.5.67 1.5 1.5v19.82c0 .83-.672 1.5-1.5 1.5z" fill="#444445"/>
    <path d="M75.24 47.18c-.34 0-.682-.114-.964-.35-.634-.534-.716-1.48-.183-2.114l8.845-10.527H29.66c-.828 0-1.5-.672-1.5-1.5 0-.83.672-1.5 1.5-1.5h56.498c.583 0 1.113.337 1.36.866.246.528.164 1.152-.21 1.598L76.39 46.646c-.297.353-.722.535-1.15.535z" fill="#EA3546"/>
    <path d="M86.158 33.363c-.384 0-.767-.147-1.06-.44L74.18 22.007c-.585-.585-.585-1.535 0-2.12.587-.587 1.536-.587 2.122 0L87.22 30.8c.585.586.585 1.535 0 2.12-.294.294-.678.44-1.062.44z" fill="#EA3546"/>
    <path d="M24.375 34.19H21.02c-.827 0-1.5-.672-1.5-1.5 0-.83.673-1.5 1.5-1.5h3.355c.828 0 1.5.67 1.5 1.5 0 .828-.672 1.5-1.5 1.5z" fill="#EA3546"/>
    <path d="M16.668 34.19h-1.1c-.828 0-1.5-.672-1.5-1.5 0-.83.672-1.5 1.5-1.5h1.1c.828 0 1.5.67 1.5 1.5 0 .828-.672 1.5-1.5 1.5z" fill="#EA3546"/>
  </g>
</svg>
