<svg height="48" viewBox="0 0 48 48" width="48" xmlns="http://www.w3.org/2000/svg">
  <path d="M18 48C9.178 48 2 40.822 2 32c0-6.906 4.486-13.043 11-15.186V14c0-.552.448-1 1-1h8c.552 0 1 .448 1 1v2.814c6.514 2.143 11 8.28 11 15.186 0 8.822-7.177 16-16 16zm-3-33v2.556c0 .45-.3.844-.733.964C8.222 20.19 4 25.734 4 32c0 7.72 6.28 14 14 14s14-6.28 14-14c0-6.266-4.222-11.81-10.267-13.48-.432-.12-.733-.515-.733-.964V15h-6z"/>
  <path d="M32 16c-2.757 0-5-2.243-5-5 0-2.206-1.794-4-4-4s-4 1.794-4 4v3c0 .552-.448 1-1 1s-1-.448-1-1v-3c0-3.31 2.69-6 6-6s6 2.69 6 6c0 1.654 1.346 3 3 3s3-1.346 3-3 1.346-3 3-3c.552 0 1 .448 1 1s-.448 1-1 1c-.55 0-1 .45-1 1 0 2.757-2.243 5-5 5z"/>
  <path fill="#ffbe2f" d="M38 6c-.552 0-1-.448-1-1V1c0-.552.448-1 1-1s1 .448 1 1v4c0 .552-.447 1-1 1z"/>
  <path fill="#ffbe2f" d="M40.83 7.172c-.257 0-.513-.098-.708-.293-.39-.39-.39-1.024 0-1.415l2.828-2.83c.39-.39 1.023-.39 1.414 0 .39.39.39 1.024 0 1.415l-2.828 2.83c-.195.194-.452.292-.707.292z"/>
  <path fill="#ffbe2f" d="M35.172 7.172c-.256 0-.512-.098-.707-.293l-2.828-2.83c-.39-.39-.39-1.024 0-1.414.39-.39 1.023-.39 1.414 0l2.83 2.83c.39.39.39 1.023 0 1.413-.196.194-.452.292-.708.292z"/>
  <path fill="#ffbe2f" d="M46 10h-4c-.552 0-1-.448-1-1s.448-1 1-1h4c.552 0 1 .448 1 1s-.448 1-1 1z"/>
  <path fill="#ffbe2f" d="M43.657 15.655c-.256 0-.512-.098-.707-.292l-2.83-2.827c-.39-.39-.39-1.023 0-1.415.39-.39 1.024-.39 1.415 0l2.83 2.828c.39.39.39 1.023 0 1.415-.196.195-.452.292-.708.292z"/>
  <path fill="#2195f2" d="M8.978 39.29c-.316 0-.627-.15-.82-.428-1.834-2.63-2.533-5.816-1.97-8.97.564-3.157 2.323-5.904 4.953-7.736.455-.315 1.077-.204 1.393.25.316.452.205 1.076-.25 1.39C7.76 26.95 6.646 33.197 9.8 37.72c.316.452.205 1.076-.25 1.39-.174.122-.373.18-.57.18z"/>
</svg>
