<svg xmlns="http://www.w3.org/2000/svg" viewBox="0 0 320 240" xmlns:xlink="http://www.w3.org/1999/xlink">
    <defs>
        <radialGradient id="sky" cx="100%" cy="0%" r="141.421%" fx="100%" fy="0%" gradientTransform="matrix(-.6 .6 -.45 -.8 1.6 -.6)">
            <stop id="sky-top" stop-color="#3bf" offset="0%"/>
            <stop id="sky-bottom" stop-color="#05f" offset="100%"/>
        </radialGradient>
        <linearGradient id="mountains-back" x1="50%" x2="50%" y1="0%" y2="100%">
            <stop stop-color="#fff" offset="0%"/>
            <stop stop-color="#fff" stop-opacity="0" offset="100%"/>
        </linearGradient>
    </defs>
    <g fill="none" fill-rule="evenodd">
        <path fill="url(#sky)" d="M0 0h320v240H0V0z" transform="matrix(1 0 0 -1 0 240)"/>
        <g fill="#fff">
            <path id="cloud1" fill-rule="nonzero" d="M277.35 146.895c0 3.707-2.988 7.105-6.695 7.105h-33.362c-3.707 0-6.693-3.398-6.693-7.105 0-3.707 2.986-6.9 6.693-6.9.412 0 .772-.05 1.184 0 .206-4.53 3.656-8.185 7.826-8.185 2.42 0 4.53 1.133 5.972 2.986 1.34-3.913 4.84-6.796 8.907-6.796 5.2 0 9.422 4.582 9.422 10.246 0 .514-.052 1.08-.103 1.544.052 0 .052.206.104.206 3.707 0 6.745 3.244 6.745 6.9z"/>
            <path id="cloud2" fill-opacity=".8" d="M274.593 147h15.993c2.938 0 5.332-2.468 5.332-5.4 0-2.47-1.62-4.532-3.9-5.204-.06-2.2-1.882-3.956-4.126-3.956-.652 0-1.266.16-1.815.424a6.403 6.403 0 0 0-5.902-3.864c-2.894 0-5.34 1.898-6.13 4.5-3.423.41-6.045 3.244-6.045 6.73 0 3.654 2.078 6.77 5.828 6.77"/>
        </g>
        <path fill="url(#mountains-back)" d="M0 7.652l15.29 17.516 7.52-7.362 35.793 36.8 39.968.406L156.68 0l57.64 60 62.236-40L320 60v16H0z" transform="translate(0 164)"/>
        <path id="mountains-front" fill="#fff" d="M0 220.655l15.543-14.677 16.595 15.853 36.915-25.093 9.113 5.72L100.426 185l39.855 34.897 17.782-12.463 15.757 12.193 10.957-8.075 12.217 7.264 31.115-30.023 32.67 31.104 27.733-11.935 7.62 5.622L320 201.69V240H0z"/>
        <g transform="translate(22 22)">
            <ellipse id="sun" fill="#ffd061" cx="23.623" cy="21.93" rx="13.034" ry="13.047"/>
            <ellipse id="sun-flare" cx="23.623" cy="21.93" stroke="#ffd500" stroke-opacity=".2" stroke-width="5" rx="15.534" ry="15.547"/>
        </g>
    </g>
</svg>
